<?xml version="1.0" encoding="UTF-8"?>
<svg version="1.1" xmlns="http://www.w3.org/2000/svg" width="440" height="138">
<path d="M0 0 C145.2 0 290.4 0 440 0 C440 45.54 440 91.08 440 138 C294.8 138 149.6 138 0 138 C0 92.46 0 46.92 0 0 Z " fill="#1B1A1E" transform="translate(0,0)"/>
<path d="M0 0 C2.64 0 5.28 0 8 0 C8.495 2.475 8.495 2.475 9 5 C9.91845388 4.99631283 10.83690777 4.99262566 11.78319359 4.98882675 C34.15180489 4.90041255 56.52038598 4.83425961 78.88913536 4.79275131 C89.70659036 4.77214364 100.52392857 4.74405731 111.34130859 4.69824219 C120.77193425 4.65831953 130.20247531 4.63255414 139.63318312 4.62364602 C144.62470642 4.61844048 149.61598773 4.60624292 154.60743332 4.57707977 C159.31059967 4.54982491 164.01342554 4.54157531 168.71666336 4.54756927 C170.43791813 4.54647353 172.15918489 4.53857982 173.88037109 4.5231781 C184.41863968 4.43354512 193.73988874 4.75508002 202.4375 11.4375 C204.8788142 13.8788142 206.55651664 15.87245272 208 19 C208 20.32 208 21.64 208 23 C208.66 23 209.32 23 210 23 C210.165 22.319375 210.33 21.63875 210.5 20.9375 C214.64540931 12.81940677 223.11094548 8.88040559 231.25 5.75 C240.2613945 3.9477211 249.00678126 4.06301195 257 9 C262.63001484 13.89705064 266.63129444 19.58807576 267.2624054 27.13993835 C267.34708213 31.06288601 267.33769504 34.97933101 267.29296875 38.90234375 C267.287366 40.34965066 267.28309911 41.7969633 267.28010559 43.24427795 C267.26871009 47.03374232 267.23928949 50.82285584 267.20599365 54.61218262 C267.17517775 58.48684952 267.16157577 62.36157371 267.14648438 66.23632812 C267.11441388 73.82437783 267.06328279 81.41213955 267 89 C263.7 89 260.4 89 257 89 C256.99857498 88.22849609 256.99714996 87.45699219 256.99568176 86.66210938 C256.97779748 79.36505504 256.93602497 72.0687019 256.86790943 64.7719574 C256.83372554 61.02123129 256.80854303 57.27090874 256.80444336 53.52001953 C256.80014165 49.89511002 256.77152696 46.27110952 256.72656822 42.64648438 C256.71365242 41.26877146 256.70926448 39.89094943 256.71384621 38.51318359 C256.73394063 30.63058273 256.68717673 23.95900362 251 18 C245.18966292 14.20549415 238.78611214 14.07619084 232 15 C223.12188887 17.98806233 216.63101265 23.92416391 212 32 C209.46650941 37.79532269 209.6521013 43.52977025 209.5859375 49.7421875 C209.56657135 50.86569611 209.5472052 51.98920471 209.5272522 53.14675903 C209.46764125 56.72276298 209.42114452 60.29879943 209.375 63.875 C209.33680326 66.30470126 209.29775054 68.73438923 209.2578125 71.1640625 C209.16195469 77.10926657 209.07785503 83.05453402 209 89 C205.7 89 202.4 89 199 89 C198.99120064 87.85487442 198.99120064 87.85487442 198.98222351 86.68661499 C198.9242189 79.47735517 198.85209829 72.26843791 198.76428509 65.05948448 C198.71963726 61.35364347 198.68036923 57.64791097 198.65356445 53.94189453 C198.62747511 50.36255267 198.58703397 46.78362964 198.53681374 43.20454788 C198.52018285 41.84192761 198.50864507 40.47923495 198.50238609 39.11652756 C198.49270469 37.20175349 198.46291462 35.28711355 198.43237305 33.37255859 C198.42126999 32.28445892 198.41016693 31.19635925 198.39872742 30.07528687 C197.94082389 26.54358919 196.68188893 24.11344503 195 21 C195 20.34 195 19.68 195 19 C186.83213981 14.76481323 179.4157059 13.54156243 170.375 16 C161.61282601 19.39180929 156.79666815 25.52220772 153.08456421 33.87527466 C151.28919414 39.04789451 151.27320443 44.01812963 151.29296875 49.44921875 C151.27784744 50.58784866 151.26272614 51.72647858 151.24714661 52.89961243 C151.20454973 56.49578084 151.19545823 60.09110533 151.1875 63.6875 C151.16433409 66.14260013 151.13896445 68.5976805 151.11132812 71.05273438 C151.04464971 77.03560628 151.02339922 83.01618071 151 89 C163.87 89 176.74 89 190 89 C190 89.33 190 89.66 190 90 C154.19301469 91.5956766 118.4549568 92.33602745 82.61349869 92.25714111 C78.87338199 92.24987544 75.13328091 92.24673649 71.39315796 92.24462891 C34.22992317 92.21861483 -2.87634494 91.80563926 -40 90 C-38.68 89.67 -37.36 89.34 -36 89 C-36.33 83.72 -36.66 78.44 -37 73 C-38.2375 74.7325 -38.2375 74.7325 -39.5 76.5 C-45.37409673 83.28059314 -56.02263973 88.91356787 -65 90 C-77.02967232 90.84735567 -87.17508957 89.54004754 -97 82 C-97.969375 81.319375 -98.93875 80.63875 -99.9375 79.9375 C-108.46552205 72.5989126 -112.42107118 62.09187806 -113.3125 51.171875 C-113.87894562 38.0507917 -110.75801572 27.00916083 -102 17 C-92.29572084 7.81064177 -79.76392293 4.40059126 -66.6640625 4.625 C-56.93965303 5.62024873 -47.85207647 10.0072238 -41 17 C-39.68 18.98 -38.36 20.96 -37 23 C-36.34 17.72 -35.68 12.44 -35 7 C-32.03 7 -29.06 7 -26 7 C-26 34.06 -26 61.12 -26 89 C-17.42 89 -8.84 89 0 89 C0.66 87.35 1.32 85.7 2 84 C3.31274414 82.01123047 3.31274414 82.01123047 4.78515625 80.1171875 C5.31560547 79.42496094 5.84605469 78.73273438 6.39257812 78.01953125 C6.94365234 77.31183594 7.49472656 76.60414062 8.0625 75.875 C9.16120302 74.45855359 10.2564147 73.03939025 11.34765625 71.6171875 C11.83242432 70.99440918 12.31719238 70.37163086 12.81665039 69.72998047 C14.18709148 67.8963914 14.18709148 67.8963914 15 65 C15.66 65 16.32 65 17 65 C17.26296875 64.26910156 17.5259375 63.53820312 17.796875 62.78515625 C19.01671304 59.9613104 20.39556159 57.88455242 22.25 55.4375 C26.24148984 50.06462024 30.10523016 44.61258316 33.9375 39.125 C34.49791992 38.32376709 35.05833984 37.52253418 35.63574219 36.69702148 C40.44523107 29.81283761 45.22338567 22.90701007 50 16 C48.78940918 16.01571045 47.57881836 16.0314209 46.33154297 16.04760742 C41.82526342 16.10204969 37.31901276 16.13640207 32.8125 16.16479492 C30.86485906 16.17984899 28.91725184 16.2002968 26.96972656 16.22631836 C24.16462872 16.26285053 21.35998046 16.27976033 18.5546875 16.29296875 C17.25590164 16.31619453 17.25590164 16.31619453 15.93087769 16.33988953 C10.85922559 16.34129031 7.39384962 15.8218203 3 13 C-0.57563204 8.82842929 -0.26653469 5.24184884 0 0 Z " fill="#32236D" transform="translate(139,33)"/>
<path d="M0 0 C2.64 0 5.28 0 8 0 C8.66 1.98 9.32 3.96 10 6 C28.81 6.33 47.62 6.66 67 7 C64.75346687 12.61633282 64.75346687 12.61633282 62.53125 15.4609375 C62.04140625 16.09902344 61.5515625 16.73710938 61.046875 17.39453125 C60.53640625 18.04808594 60.0259375 18.70164062 59.5 19.375 C53.55404166 26.99925303 48.39681576 34.90477636 43 43 C59.83 43.33 76.66 43.66 94 44 C94 31.79 94 19.58 94 7 C97.3 7 100.6 7 104 7 C104 34.06 104 61.12 104 89 C100.7 89 97.4 89 94 89 C94 88.34 94 87.68 94 87 C85.09 87 76.18 87 67 87 C67 87.66 67 88.32 67 89 C44.89 89 22.78 89 0 89 C1.51221355 85.21946612 2.42489789 83.1533149 4.78515625 80.1171875 C5.58083008 79.07884766 5.58083008 79.07884766 6.39257812 78.01953125 C6.94365234 77.31183594 7.49472656 76.60414062 8.0625 75.875 C9.16120302 74.45855359 10.2564147 73.03939025 11.34765625 71.6171875 C11.83242432 70.99440918 12.31719238 70.37163086 12.81665039 69.72998047 C14.18709148 67.8963914 14.18709148 67.8963914 15 65 C15.66 65 16.32 65 17 65 C17.26296875 64.26910156 17.5259375 63.53820312 17.796875 62.78515625 C19.01671304 59.9613104 20.39556159 57.88455242 22.25 55.4375 C26.24148984 50.06462024 30.10523016 44.61258316 33.9375 39.125 C34.49791992 38.32376709 35.05833984 37.52253418 35.63574219 36.69702148 C40.44523107 29.81283761 45.22338567 22.90701007 50 16 C48.78940918 16.01571045 47.57881836 16.0314209 46.33154297 16.04760742 C41.82526342 16.10204969 37.31901276 16.13640207 32.8125 16.16479492 C30.86485906 16.17984899 28.91725184 16.2002968 26.96972656 16.22631836 C24.16462872 16.26285053 21.35998046 16.27976033 18.5546875 16.29296875 C17.25590164 16.31619453 17.25590164 16.31619453 15.93087769 16.33988953 C10.85922559 16.34129031 7.39384962 15.8218203 3 13 C-0.57563204 8.82842929 -0.26653469 5.24184884 0 0 Z " fill="#342476" transform="translate(139,33)"/>
<path d="M0 0 C5.76578458 -0.0247279 11.53153825 -0.04287328 17.29736328 -0.05493164 C19.25863177 -0.05995887 21.21989652 -0.06678157 23.18115234 -0.07543945 C26.00098597 -0.08757545 28.82077002 -0.09324444 31.640625 -0.09765625 C32.95489471 -0.10539818 32.95489471 -0.10539818 34.29571533 -0.11329651 C35.52653839 -0.11340981 35.52653839 -0.11340981 36.78222656 -0.11352539 C37.86144379 -0.11685631 37.86144379 -0.11685631 38.96246338 -0.12025452 C41.13063504 0.00771002 42.94748099 0.28247354 45 1 C48 5.17857143 48 5.17857143 48 8 C53.26169639 10.13312016 57.96811258 10.33953325 63.5546875 10.4140625 C64.90700974 10.44311172 64.90700974 10.44311172 66.28665161 10.4727478 C69.14933996 10.53224296 72.01206918 10.57880817 74.875 10.625 C76.82293363 10.66320747 78.77085086 10.7022608 80.71875 10.7421875 C85.47903258 10.83791965 90.2393942 10.92206116 95 11 C93.65535812 13.81841019 92.14944264 16.37575912 90.3828125 18.94921875 C89.86404541 19.7067041 89.34527832 20.46418945 88.81079102 21.24462891 C88.25447998 22.05077637 87.69816895 22.85692383 87.125 23.6875 C86.54999756 24.52458496 85.97499512 25.36166992 85.38256836 26.22412109 C80.99083073 32.60238264 76.54089142 38.93850218 72.05175781 45.24853516 C68.93839518 49.6326795 65.93282265 54.06526309 63.0859375 58.62890625 C62.72757813 59.08136719 62.36921875 59.53382812 62 60 C61.34 60 60.68 60 60 60 C59.84241211 60.85827393 59.84241211 60.85827393 59.68164062 61.73388672 C58.88904509 64.36886944 57.72858714 66.04821249 56.09375 68.2578125 C55.51496094 69.04800781 54.93617188 69.83820313 54.33984375 70.65234375 C53.42912109 71.87630859 53.42912109 71.87630859 52.5 73.125 C51.30093433 74.75175788 50.10296309 76.37932319 48.90625 78.0078125 C48.10670898 79.08506592 48.10670898 79.08506592 47.29101562 80.18408203 C45.95012825 81.9715994 45.95012825 81.9715994 45 84 C36.42 84 27.84 84 19 84 C19 56.94 19 29.88 19 2 C12.73 2 6.46 2 0 2 C0 1.34 0 0.68 0 0 Z " fill="#2B2057" transform="translate(94,38)"/>
<path d="M0 0 C7.08016757 4.90487236 13.15597085 11.39224801 15 20 C16.06797653 32.40178537 15.73793777 42.32448465 7.75 52.25 C4.29237491 55.97473776 0.52852923 58.70909698 -4 61 C-5.07314453 61.54720703 -5.07314453 61.54720703 -6.16796875 62.10546875 C-14.27079197 64.66484326 -25.96149129 64.58535092 -33.6875 61 C-43.03482312 55.18642099 -48.54746503 47.3576049 -52 37 C-53.04525758 24.84061119 -52.01203878 15.91365689 -44.39453125 5.88671875 C-32.57536182 -7.22385637 -14.92390035 -7.89189609 0 0 Z " fill="#1D1C22" transform="translate(88,51)"/>
<path d="M0 0 C4.45286517 3.84565628 6.75783558 7.02462863 7.24050903 12.95503235 C7.2338472 14.59051277 7.2338472 14.59051277 7.22705078 16.2590332 C7.22689972 17.49994217 7.22674866 18.74085114 7.22659302 20.0193634 C7.21638143 21.36317101 7.20594946 22.70697695 7.1953125 24.05078125 C7.19157931 25.4336883 7.18873378 26.81659802 7.18673706 28.19950867 C7.17912462 31.8278034 7.15949691 35.45593637 7.1373291 39.08416748 C7.11681899 42.79111544 7.10772433 46.4980897 7.09765625 50.20507812 C7.07624852 57.47013414 7.04108613 64.73502373 7 72 C14.26 72 21.52 72 29 72 C29 72.33 29 72.66 29 73 C17.12691642 74.43636458 5.18633811 74.1108955 -6.75 74.0625 C-8.9114573 74.05747562 -11.07291572 74.05291437 -13.234375 74.04882812 C-18.48960827 74.03789537 -23.74479877 74.02123148 -29 74 C-29 73.67 -29 73.34 -29 73 C-32.96 72.67 -36.92 72.34 -41 72 C-41.1492891 64.81421814 -41.25766257 57.6293562 -41.32958984 50.44238281 C-41.35960103 48.00211849 -41.40042372 45.56196056 -41.45263672 43.12207031 C-42.02268764 15.78198088 -42.02268764 15.78198088 -32.78710938 5.54785156 C-24.49813212 -2.78353442 -10.43341368 -7.20402373 0 0 Z " fill="#251F40" transform="translate(331,50)"/>
<path d="M0 0 C3.19317924 2.48533163 5.45572378 5.1293286 7.1484375 8.796875 C7.1484375 10.116875 7.1484375 11.436875 7.1484375 12.796875 C7.8084375 12.796875 8.4684375 12.796875 9.1484375 12.796875 C9.3134375 12.11625 9.4784375 11.435625 9.6484375 10.734375 C13.79384681 2.61628177 22.25938298 -1.32271941 30.3984375 -4.453125 C39.409832 -6.2554039 48.15521876 -6.14011305 56.1484375 -1.203125 C61.77845234 3.69392564 65.77973194 9.38495076 66.4108429 16.93681335 C66.49551963 20.85976101 66.48613254 24.77620601 66.44140625 28.69921875 C66.4358035 30.14652566 66.43153661 31.5938383 66.42854309 33.04115295 C66.41714759 36.83061732 66.38772699 40.61973084 66.35443115 44.40905762 C66.32361525 48.28372452 66.31001327 52.15844871 66.29492188 56.03320312 C66.26285138 63.62125283 66.21172029 71.20901455 66.1484375 78.796875 C62.8484375 78.796875 59.5484375 78.796875 56.1484375 78.796875 C56.14701248 78.02537109 56.14558746 77.25386719 56.14411926 76.45898438 C56.12623498 69.16193004 56.08446247 61.8655769 56.01634693 54.5688324 C55.98216304 50.81810629 55.95698053 47.06778374 55.95288086 43.31689453 C55.94857915 39.69198502 55.91996446 36.06798452 55.87500572 32.44335938 C55.86208992 31.06564646 55.85770198 29.68782443 55.86228371 28.31005859 C55.88237813 20.42745773 55.83561423 13.75587862 50.1484375 7.796875 C44.33810042 4.00236915 37.93454964 3.87306584 31.1484375 4.796875 C22.27032637 7.78493733 15.77945015 13.72103891 11.1484375 21.796875 C8.61494691 27.59219769 8.8005388 33.32664525 8.734375 39.5390625 C8.71500885 40.66257111 8.6956427 41.78607971 8.6756897 42.94363403 C8.61607875 46.51963798 8.56958202 50.09567443 8.5234375 53.671875 C8.48524076 56.10157626 8.44618804 58.53126423 8.40625 60.9609375 C8.31039219 66.90614157 8.22629253 72.85140902 8.1484375 78.796875 C4.8484375 78.796875 1.5484375 78.796875 -1.8515625 78.796875 C-1.85742874 78.03345795 -1.86329498 77.27004089 -1.86933899 76.48348999 C-1.9273436 69.27423017 -1.99946421 62.06531291 -2.08727741 54.85635948 C-2.13192524 51.15051847 -2.17119327 47.44478597 -2.19799805 43.73876953 C-2.22408739 40.15942767 -2.26452853 36.58050464 -2.31474876 33.00142288 C-2.33137965 31.63880261 -2.34291743 30.27610995 -2.34917641 28.91340256 C-2.35885781 26.99862849 -2.38864788 25.08398855 -2.41918945 23.16943359 C-2.43584404 21.53728409 -2.43584404 21.53728409 -2.45283508 19.87216187 C-2.91073861 16.34046419 -4.16967357 13.91032003 -5.8515625 10.796875 C-5.8515625 10.136875 -5.8515625 9.476875 -5.8515625 8.796875 C-14.01942269 4.56168823 -21.4358566 3.33843743 -30.4765625 5.796875 C-39.23873649 9.18868429 -44.05489435 15.31908272 -47.76699829 23.67214966 C-49.56236836 28.84476951 -49.57835807 33.81500463 -49.55859375 39.24609375 C-49.57371506 40.38472366 -49.58883636 41.52335358 -49.60441589 42.69648743 C-49.64701277 46.29265584 -49.65610427 49.88798033 -49.6640625 53.484375 C-49.68722841 55.93947513 -49.71259805 58.3945555 -49.74023438 60.84960938 C-49.80281068 66.83210495 -49.83536446 72.8140814 -49.8515625 78.796875 C-53.1515625 78.796875 -56.4515625 78.796875 -59.8515625 78.796875 C-59.8515625 52.066875 -59.8515625 25.336875 -59.8515625 -2.203125 C-57.2115625 -2.203125 -54.5715625 -2.203125 -51.8515625 -2.203125 C-51.1915625 2.746875 -50.5315625 7.696875 -49.8515625 12.796875 C-49.0471875 11.600625 -48.2428125 10.404375 -47.4140625 9.171875 C-36.45208634 -5.43547531 -15.44742661 -10.03756834 0 0 Z " fill="#E4E0D3" transform="translate(339.8515625,43.203125)"/>
<path d="M0 0 C3.70984178 2.95505631 5.09514452 5.29896678 7.9375 9.5625 C8.5975 4.2825 9.2575 -0.9975 9.9375 -6.4375 C12.9075 -6.4375 15.8775 -6.4375 18.9375 -6.4375 C18.9375 20.2925 18.9375 47.0225 18.9375 74.5625 C15.6375 74.5625 12.3375 74.5625 8.9375 74.5625 C8.4425 67.1375 8.4425 67.1375 7.9375 59.5625 C6.7 61.295 6.7 61.295 5.4375 63.0625 C-0.43659673 69.84309314 -11.08513973 75.47606787 -20.0625 76.5625 C-32.09217232 77.40985567 -42.23758957 76.10254754 -52.0625 68.5625 C-53.031875 67.881875 -54.00125 67.20125 -55 66.5 C-63.52802205 59.1614126 -67.48357118 48.65437806 -68.375 37.734375 C-68.94144562 24.6132917 -65.82051572 13.57166083 -57.0625 3.5625 C-41.3245161 -11.3404072 -17.37528293 -12.77594333 0 0 Z M-52.0625 12.5625 C-58.66130288 21.51895899 -59.45041822 30.84117531 -58.0625 41.5625 C-56.2336358 50.61119414 -50.11836877 58.13958264 -42.546875 63.265625 C-40.41576962 64.46179383 -38.2862948 65.55168418 -36.0625 66.5625 C-35.4025 66.8925 -34.7425 67.2225 -34.0625 67.5625 C-21.20592546 68.57211172 -11.50222355 68.03090126 -0.921875 59.921875 C3.61278706 55.84448979 5.8042117 51.19392233 7.9375 45.5625 C8.4325 44.5725 8.4325 44.5725 8.9375 43.5625 C9.20222727 40.50650442 9.1690706 37.44119165 9.1875 34.375 C9.208125 33.53646484 9.22875 32.69792969 9.25 31.83398438 C9.30691773 22.72003334 5.99025802 16.3168277 -0.0625 9.5625 C-6.99843461 2.94598343 -15.49290418 -0.56562451 -25.0625 -0.9375 C-36.38811507 -0.45462494 -44.68018397 4.00777427 -52.0625 12.5625 Z " fill="#E4E0D3" transform="translate(94.0625,46.4375)"/>
<path d="M0 0 C2.64 0 5.28 0 8 0 C8.66 1.98 9.32 3.96 10 6 C28.81 6.33 47.62 6.66 67 7 C64.75376197 12.61559508 64.75376197 12.61559508 62.63671875 15.3203125 C62.16878906 15.9280249 61.70085937 16.5357373 61.21875 17.16186523 C60.7134375 17.80969971 60.208125 18.45753418 59.6875 19.125 C55.10631935 25.11132685 50.72874862 31.19730742 46.5 37.4375 C41.92821367 44.18236741 37.30147016 50.87978222 32.57226562 57.51538086 C27.28846732 64.9493592 22.16994595 72.48007862 17 80 C33.5 80 50 80 67 80 C67 82.97 67 85.94 67 89 C44.89 89 22.78 89 0 89 C1.51221355 85.21946612 2.42489789 83.1533149 4.78515625 80.1171875 C5.58083008 79.07884766 5.58083008 79.07884766 6.39257812 78.01953125 C6.94365234 77.31183594 7.49472656 76.60414062 8.0625 75.875 C9.16120302 74.45855359 10.2564147 73.03939025 11.34765625 71.6171875 C11.83242432 70.99440918 12.31719238 70.37163086 12.81665039 69.72998047 C14.18709148 67.8963914 14.18709148 67.8963914 15 65 C15.66 65 16.32 65 17 65 C17.26296875 64.26910156 17.5259375 63.53820312 17.796875 62.78515625 C19.01671304 59.9613104 20.39556159 57.88455242 22.25 55.4375 C26.24148984 50.06462024 30.10523016 44.61258316 33.9375 39.125 C34.49791992 38.32376709 35.05833984 37.52253418 35.63574219 36.69702148 C40.44523107 29.81283761 45.22338567 22.90701007 50 16 C48.78940918 16.01571045 47.57881836 16.0314209 46.33154297 16.04760742 C41.82526342 16.10204969 37.31901276 16.13640207 32.8125 16.16479492 C30.86485906 16.17984899 28.91725184 16.2002968 26.96972656 16.22631836 C24.16462872 16.26285053 21.35998046 16.27976033 18.5546875 16.29296875 C17.25590164 16.31619453 17.25590164 16.31619453 15.93087769 16.33988953 C10.85922559 16.34129031 7.39384962 15.8218203 3 13 C-0.57563204 8.82842929 -0.26653469 5.24184884 0 0 Z " fill="#E0DBD2" transform="translate(139,33)"/>
<path d="M0 0 C12.21 0 24.42 0 37 0 C37 12.21 37 24.42 37 37 C18.60493827 37 18.60493827 37 9.5 36.5 C6.365 36.335 3.23 36.17 0 36 C0 24.12 0 12.24 0 0 Z " fill="#2F2264" transform="translate(243,41)"/>
<path d="M0 0 C5.88873332 0.00569189 11.77746607 0.00663 17.66620177 0.00765187 C29.30066679 0.00982011 40.93512465 0.0164185 52.5695858 0.02595448 C63.84595263 0.03518713 75.12231749 0.04223902 86.39868736 0.0464623 C87.44795356 0.04685638 87.44795356 0.04685638 88.51841706 0.04725843 C92.02898163 0.04856382 95.53954622 0.04982745 99.05011082 0.05107033 C127.99947821 0.06137328 156.94883855 0.07900575 185.89819908 0.10139394 C185.89819908 0.43139394 185.89819908 0.76139394 185.89819908 1.10139394 C171.71876502 2.10184747 157.54547432 2.40979607 143.33569908 2.66389394 C141.0524901 2.70720597 138.76928689 2.75082369 136.48608971 2.79475331 C130.95685436 2.90048419 125.42756016 3.00246808 119.89819908 3.10139394 C121.84701988 3.13897817 121.84701988 3.13897817 123.8352108 3.17732167 C128.74445847 3.27286633 133.65361179 3.37270196 138.56274986 3.47370839 C140.67080003 3.51651063 142.77887288 3.55821259 144.88696861 3.59870839 C157.9109541 3.8497657 170.89793801 4.26409247 183.89819908 5.10139394 C183.89819908 5.43139394 183.89819908 5.76139394 183.89819908 6.10139394 C144.58905646 6.97847598 105.30147435 7.26706911 65.98417771 7.2319665 C60.64476743 7.22720591 55.30536029 7.22489428 49.9659481 7.22370839 C3.60503399 7.2114108 -42.74817328 6.98965163 -89.10180092 6.10139394 C-89.10180092 5.77139394 -89.10180092 5.44139394 -89.10180092 5.10139394 C-88.17243721 5.08593274 -88.17243721 5.08593274 -87.22429848 5.0701592 C-80.66825672 4.9604323 -74.11230791 4.84600971 -67.55639076 4.72907948 C-65.12249163 4.68625287 -62.68857238 4.64455153 -60.25463295 4.60407948 C-56.71925265 4.54508365 -53.18396896 4.48179097 -49.64867592 4.41780019 C-48.06454903 4.39273145 -48.06454903 4.39273145 -46.44841957 4.36715627 C-36.30770445 4.1762721 -26.25052837 3.60883031 -16.10180092 3.10139394 C-49.26680092 2.60639394 -49.26680092 2.60639394 -83.10180092 2.10139394 C-83.10180092 1.77139394 -83.10180092 1.44139394 -83.10180092 1.10139394 C-55.40656154 -0.10886405 -27.716165 -0.0314033 0 0 Z " fill="#322372" transform="translate(173.1018009185791,126.89860606193542)"/>
<path d="M0 0 C1.9375 1.0625 1.9375 1.0625 3 3 C3.55297243 7.26578735 3.57238959 9.23019666 0.97265625 12.7265625 C-0.00380859 13.85191406 -0.00380859 13.85191406 -1 15 C-0.15750702 14.92894547 0.68498596 14.85789093 1.55300903 14.78468323 C10.22124218 14.10277485 18.79578166 13.86615139 27.4921875 13.90234375 C29.46011765 13.90446617 29.46011765 13.90446617 31.46780396 13.90663147 C34.90356462 13.91039321 38.33928091 13.92016672 41.77502441 13.93133545 C45.30183309 13.94168852 48.82864916 13.94615841 52.35546875 13.95117188 C59.23699704 13.96179683 66.11849637 13.97879374 73 14 C73 14.66 73 15.32 73 16 C60.8109258 16.79449961 48.6883134 17.14543821 36.47509766 17.12939453 C34.70195988 17.13075424 32.92882239 17.13253734 31.15568542 17.13470459 C26.39728856 17.13921193 21.63891371 17.13751713 16.88051653 17.1343255 C11.86243163 17.13176609 6.84434842 17.13414938 1.82626343 17.13571167 C-6.5975986 17.13752335 -15.02145182 17.13515381 -23.4453125 17.13037109 C-33.13260428 17.12493397 -42.819875 17.12669121 -52.50716627 17.1321975 C-60.8772011 17.13676154 -69.24722966 17.13736307 -77.61726534 17.13475883 C-82.59308696 17.1332136 -87.56889874 17.13295337 -92.5447197 17.13629532 C-97.22837732 17.13922211 -101.91200827 17.13711179 -106.59566307 17.13140106 C-108.29658782 17.13009873 -109.99751488 17.13042345 -111.69843864 17.13266373 C-123.82729125 17.14714359 -135.89146202 16.69822742 -148 16 C-147.67 15.34 -147.34 14.68 -147 14 C-145.9268295 14.00138269 -145.9268295 14.00138269 -144.8319788 14.00279331 C-127.4485762 14.02484774 -110.06517714 14.04141116 -92.68176365 14.05181217 C-84.27538616 14.05697531 -75.86901799 14.06401834 -67.46264648 14.07543945 C-60.13832068 14.08538575 -52.81400163 14.0918533 -45.48966926 14.09408849 C-41.60909213 14.09539569 -37.7285343 14.09848212 -33.84796333 14.10573006 C-30.19960443 14.11248942 -26.55127289 14.11461713 -22.90290833 14.11310768 C-20.91711581 14.11351637 -18.9313263 14.118912 -16.94554138 14.12442017 C-15.18912827 14.12235817 -15.18912827 14.12235817 -13.39723206 14.12025452 C-12.37312005 14.12117631 -11.34900805 14.1220981 -10.29386234 14.12304783 C-8.03535906 14.2580975 -8.03535906 14.2580975 -7 13 C-48.58 12.67 -90.16 12.34 -133 12 C-132.67 11.34 -132.34 10.68 -132 10 C-92.07 10 -52.14 10 -11 10 C-11 8.02 -11 6.04 -11 4 C-8.05323917 -0.47907646 -5.13567732 -0.65363166 0 0 Z " fill="#362777" transform="translate(242,4)"/>
<path d="M0 0 C3.3 0 6.6 0 10 0 C10 27.06 10 54.12 10 82 C6.7 82 3.4 82 0 82 C0 54.94 0 27.88 0 0 Z " fill="#E3DFD4" transform="translate(233,40)"/>
<path d="M0 0 C5.76578458 -0.0247279 11.53153825 -0.04287328 17.29736328 -0.05493164 C19.25863177 -0.05995887 21.21989652 -0.06678157 23.18115234 -0.07543945 C26.00098597 -0.08757545 28.82077002 -0.09324444 31.640625 -0.09765625 C32.95489471 -0.10539818 32.95489471 -0.10539818 34.29571533 -0.11329651 C35.52653839 -0.11340981 35.52653839 -0.11340981 36.78222656 -0.11352539 C37.86144379 -0.11685631 37.86144379 -0.11685631 38.96246338 -0.12025452 C41.13063504 0.00771002 42.94748099 0.28247354 45 1 C48 5.17857143 48 5.17857143 48 8 C53.26169639 10.13312016 57.96811258 10.33953325 63.5546875 10.4140625 C64.90700974 10.44311172 64.90700974 10.44311172 66.28665161 10.4727478 C69.14933996 10.53224296 72.01206918 10.57880817 74.875 10.625 C76.82293363 10.66320747 78.77085086 10.7022608 80.71875 10.7421875 C85.47903258 10.83791965 90.2393942 10.92206116 95 11 C94.34 12.32 93.68 13.64 93 15 C68.58 15 44.16 15 19 15 C19 10.71 19 6.42 19 2 C12.73 2 6.46 2 0 2 C0 1.34 0 0.68 0 0 Z " fill="#241E3C" transform="translate(94,38)"/>
<path d="M0 0 C12.21 0 24.42 0 37 0 C37 5.61 37 11.22 37 17 C24.64569123 17.15442886 12.33906184 16.56315197 0 16 C0 10.72 0 5.44 0 0 Z " fill="#2C215C" transform="translate(243,41)"/>
<path d="M0 0 C0.68936299 -0.00001007 1.37872599 -0.00002014 2.08897877 -0.00003052 C43.60680995 0.00057631 85.11704245 0.13777804 126.625 1.125 C126.625 1.455 126.625 1.785 126.625 2.125 C99.96592057 2.92408075 73.33184243 3.27796799 46.6613493 3.2593255 C41.72135563 3.25671622 36.78136341 3.25916254 31.84136963 3.26071167 C23.55553852 3.26250991 15.26971644 3.26019054 6.98388672 3.25537109 C-2.45913077 3.24994037 -11.9021266 3.25169217 -21.34514356 3.2571975 C-29.59370517 3.26180548 -37.84226045 3.26234226 -46.09082294 3.25975883 C-50.95529962 3.25823648 -55.8197663 3.25788555 -60.68424225 3.26129532 C-87.92737735 3.27786365 -115.1416219 2.85390219 -142.375 2.125 C-142.375 1.795 -142.375 1.465 -142.375 1.125 C-94.91840113 0.26975892 -47.46347809 -0.00069353 0 0 Z " fill="#312270" transform="translate(221.375,27.875)"/>
<path d="M0 0 C6.8704327 0.0043401 13.74084704 0.00123348 20.61127859 -0.00362909 C27.39842312 -0.00823071 34.18555995 -0.00877823 40.97270554 -0.00619042 C44.95863469 -0.00467097 48.94455164 -0.00430928 52.93047988 -0.00772691 C74.80385963 -0.02401563 96.63961996 0.3898475 118.50067985 1.12856841 C118.50067985 1.45856841 118.50067985 1.78856841 118.50067985 2.12856841 C80.7601205 3.04534313 43.04205378 3.2880617 5.29312706 3.25713682 C0.16170243 3.2533719 -4.96970287 3.25472536 -10.10112679 3.2589395 C-48.24676327 3.28953037 -86.36166041 2.99206259 -124.49932015 2.12856841 C-124.49932015 1.79856841 -124.49932015 1.46856841 -124.49932015 1.12856841 C-82.99658255 0.12554597 -41.51244915 -0.02932015 0 0 Z " fill="#30226B" transform="translate(221.4993201494217,22.871431589126587)"/>
<path d="M0 0 C17.9557598 -0.02376065 35.91151532 -0.04118434 53.86728764 -0.05181217 C62.21157941 -0.05688631 70.55586111 -0.06377789 78.90014648 -0.07543945 C119.28044174 -0.13077658 159.62856146 0.04626573 200 1 C200 1.33 200 1.66 200 2 C158.33637057 2.91843275 116.69552926 3.1323088 75.02357793 3.07202661 C66.91852318 3.06052092 58.81346719 3.0552706 50.70840621 3.05032361 C34.13892785 3.04008143 17.56946612 3.02268767 1 3 C0.67 3.66 0.34 4.32 0 5 C0 3.35 0 1.7 0 0 Z " fill="#322371" transform="translate(147,33)"/>
<path d="M0 0 C15.84 0 31.68 0 48 0 C48 2.64 48 5.28 48 8 C55.26 8 62.52 8 70 8 C70 8.33 70 8.66 70 9 C58.12691642 10.43636458 46.18633811 10.1108955 34.25 10.0625 C32.0885427 10.05747562 29.92708428 10.05291437 27.765625 10.04882812 C22.51039173 10.03789537 17.25520123 10.02123148 12 10 C12 9.67 12 9.34 12 9 C8.04 8.67 4.08 8.34 0 8 C0 5.36 0 2.72 0 0 Z " fill="#1F1C2D" transform="translate(290,114)"/>
<path d="M0 0 C14.19 0 28.38 0 43 0 C43 0.33 43 0.66 43 1 C35.41 1.33 27.82 1.66 20 2 C33.86 2.495 33.86 2.495 48 3 C48 5.31 48 7.62 48 10 C32.16 10 16.32 10 0 10 C0 6.7 0 3.4 0 0 Z " fill="#281F4E" transform="translate(290,104)"/>
<path d="M0 0 C1.9375 1.0625 1.9375 1.0625 3 3 C3.65017399 9.06829056 3.65017399 9.06829056 1.81468487 11.69857502 C-0.68363478 13.49027762 -2.34911235 13.35453324 -5.40995789 13.32279968 C-6.53316437 13.31850952 -7.65637085 13.31421936 -8.81361389 13.30979919 C-10.04647629 13.28966263 -11.27933868 13.26952606 -12.54956055 13.2487793 C-13.84722351 13.23946381 -15.14488647 13.23014832 -16.48187256 13.22055054 C-20.04172664 13.19465297 -23.60113351 13.1501028 -27.1607511 13.10225272 C-30.8802486 13.05540914 -34.59988135 13.02565032 -38.3195343 12.99409485 C-45.36382931 12.9317307 -52.40786691 12.85395708 -59.45194227 12.77067453 C-67.47109678 12.67661183 -75.49038684 12.59968557 -83.50973451 12.52421319 C-100.00671615 12.36857065 -116.50339322 12.19136092 -133 12 C-132.67 11.34 -132.34 10.68 -132 10 C-92.07 10 -52.14 10 -11 10 C-11 8.02 -11 6.04 -11 4 C-8.05323917 -0.47907646 -5.13567732 -0.65363166 0 0 Z " fill="#332373" transform="translate(242,4)"/>
<path d="M0 0 C15.84 0 31.68 0 48 0 C48 2.31 48 4.62 48 7 C43.73578576 7.14586468 39.47146763 7.28806489 35.20703125 7.42724609 C33.76429151 7.47480543 32.32158125 7.52326989 30.87890625 7.57275391 C20.58175623 7.92510052 10.30306074 8.06240077 0 8 C0 5.36 0 2.72 0 0 Z " fill="#1A1A1C" transform="translate(290,78)"/>
<path d="M0 0 C4.78311801 -0.02498214 9.56619685 -0.04299163 14.34936523 -0.05493164 C15.97176781 -0.05991672 17.594166 -0.0667072 19.21655273 -0.07543945 C28.19906119 -0.1225263 37.06649939 -0.09493092 46 1 C45.13426324 3.99072699 44.62054265 5.60855026 41.9387207 7.30029297 C37.9133259 8.25873623 34.10378 8.2467626 29.98046875 8.1953125 C29.12189774 8.1924826 28.26332672 8.18965271 27.3787384 8.18673706 C24.64818125 8.1755807 21.9179573 8.15048459 19.1875 8.125 C17.33138496 8.11496432 15.47526476 8.1058395 13.61914062 8.09765625 C9.07929954 8.07565626 4.53970619 8.04115781 0 8 C0 5.36 0 2.72 0 0 Z " fill="#1D1B27" transform="translate(113,90)"/>
<path d="M0 0 C1.26731964 -0.0025882 2.53463928 -0.00517639 3.84036255 -0.00784302 C7.44308296 -0.01369316 11.04571646 -0.01213707 14.6484375 -0.0078125 C15.6895015 -0.00979141 16.73056549 -0.01177032 17.80317688 -0.0138092 C24.78636468 0.00811241 31.67519189 0.44992967 38.625 1.125 C38.625 1.785 38.625 2.445 38.625 3.125 C33.08911467 3.14964775 27.553261 3.16783496 22.01733398 3.17993164 C20.1325627 3.18497244 18.24779535 3.19180498 16.36303711 3.20043945 C13.65998364 3.21251617 10.95698169 3.21823068 8.25390625 3.22265625 C6.98203209 3.23039818 6.98203209 3.23039818 5.6844635 3.23829651 C3.66428932 3.23849195 1.64422066 3.18706211 -0.375 3.125 C-0.87 2.63 -0.87 2.63 -1.375 2.125 C-6.70173036 1.78643172 -6.70173036 1.78643172 -11.375 4.125 C-14.36801918 4.28078482 -17.26236137 4.31784814 -20.25268555 4.26025391 C-21.61396576 4.24606163 -21.61396576 4.24606163 -23.00274658 4.23158264 C-26.00594086 4.19787308 -29.008725 4.14976632 -32.01171875 4.1015625 C-34.0925031 4.07539868 -36.1732989 4.0501314 -38.25410461 4.02572632 C-43.73363726 3.95904311 -49.21292943 3.88015711 -54.69226074 3.79876709 C-60.28237673 3.71787856 -65.87263389 3.6484788 -71.46289062 3.578125 C-82.43376299 3.43835569 -93.40441567 3.28570029 -104.375 3.125 C-104.375 2.795 -104.375 2.465 -104.375 2.125 C-100.76841792 1.30602301 -97.39617527 0.97826558 -93.70092773 0.91967773 C-92.57145218 0.89974258 -91.44197662 0.87980743 -90.27827454 0.85926819 C-89.05077988 0.84254562 -87.82328522 0.82582306 -86.55859375 0.80859375 C-85.26233566 0.78772202 -83.96607758 0.76685028 -82.63053894 0.74534607 C-79.09376462 0.68922965 -75.5569277 0.63979164 -72.02002716 0.59236908 C-69.81197891 0.56249295 -67.60395676 0.53110227 -65.39593506 0.49932861 C-43.59761982 0.18828049 -21.80049157 0.02065847 0 0 Z " fill="#2B2058" transform="translate(243.375,2.875)"/>
<path d="M0 0 C6.35375112 -0.0253261 12.70748926 -0.04285678 19.0612793 -0.05493164 C21.22339362 -0.05996472 23.38550453 -0.06679169 25.54760742 -0.07543945 C28.65284059 -0.08754979 31.7580288 -0.09323852 34.86328125 -0.09765625 C36.31653557 -0.10539818 36.31653557 -0.10539818 37.79914856 -0.11329651 C38.6998558 -0.11337204 39.60056305 -0.11344757 40.52856445 -0.11352539 C41.32132278 -0.115746 42.11408112 -0.11796661 42.93086243 -0.12025452 C45 0 45 0 48 1 C48 3.64 48 6.28 48 9 C36.12 9 24.24 9 12 9 C12 8.67 12 8.34 12 8 C14.64 7.67 17.28 7.34 20 7 C13.4 6.67 6.8 6.34 0 6 C0 4.02 0 2.04 0 0 Z " fill="#1B1A1F" transform="translate(290,98)"/>
<path d="M0 0 C1.42111588 -0.00021904 1.42111588 -0.00021904 2.87094116 -0.0004425 C5.97119517 0.00024858 9.07138747 0.00800298 12.17163086 0.01586914 C14.33353136 0.01773618 16.49543229 0.01915873 18.65733337 0.02015686 C24.32405788 0.02395951 29.9907564 0.0337704 35.6574707 0.04486084 C41.44929656 0.05512355 47.24112664 0.05966486 53.03295898 0.06469727 C64.37997555 0.07539483 75.72697291 0.09244399 87.07397461 0.11352539 C87.07397461 1.10352539 87.07397461 2.09352539 87.07397461 3.11352539 C73.84392403 3.15982836 60.61389267 3.19538425 47.38377762 3.21714973 C41.24076733 3.22759509 35.09781241 3.24176809 28.95483398 3.2644043 C23.02856653 3.28610574 17.10235239 3.29808835 11.17604828 3.30327988 C8.9129833 3.30698048 6.6499213 3.31420664 4.38687897 3.3249855 C1.22164054 3.33946443 -1.94337646 3.34150482 -5.10864258 3.34057617 C-6.0480368 3.34776672 -6.98743103 3.35495728 -7.95529175 3.36236572 C-9.2509053 3.35824173 -9.2509053 3.35824173 -10.57269287 3.35403442 C-11.69543673 3.3567998 -11.69543673 3.3567998 -12.84086227 3.35962105 C-15.22391711 3.07836754 -16.85379267 2.29476479 -18.92602539 1.11352539 C-12.57355953 0.30644705 -6.39920102 -0.02630369 0 0 Z " fill="#281F4D" transform="translate(143.926025390625,8.886474609375)"/>
<path d="M0 0 C16.17 0 32.34 0 49 0 C49 1.98 49 3.96 49 6 C31.84 6 14.68 6 -3 6 C-2.01 4.02 -1.02 2.04 0 0 Z " fill="#302268" transform="translate(184,71)"/>
<path d="M0 0 C2.66753902 0.00533411 5.33490764 0.00003753 8.00244141 -0.00634766 C18.84908675 -0.01010602 29.61724569 0.35457093 40.43603516 1.13037109 C38.25740173 3.30900452 36.39986291 4.19837422 33.62353516 5.50537109 C26.58028125 8.98651958 22.85204483 12.75169045 18.43603516 19.13037109 C18.10603516 19.13037109 17.77603516 19.13037109 17.43603516 19.13037109 C17.10603516 13.85037109 16.77603516 8.57037109 16.43603516 3.13037109 C15.0833252 3.14084473 13.73061523 3.15131836 12.33691406 3.16210938 C7.33124424 3.19823492 2.32558599 3.22124438 -2.68017578 3.24023438 C-4.84914079 3.25030898 -7.01809216 3.26396907 -9.18701172 3.28125 C-12.2996761 3.30543432 -15.41216135 3.31683942 -18.52490234 3.32568359 C-19.49889984 3.33600616 -20.47289734 3.34632874 -21.47640991 3.35696411 C-22.37719269 3.35711517 -23.27797546 3.35726624 -24.20605469 3.35742188 C-25.3985231 3.36408371 -25.3985231 3.36408371 -26.61508179 3.37088013 C-28.56396484 3.13037109 -28.56396484 3.13037109 -30.56396484 1.13037109 C-20.36501656 0.10486988 -10.24081093 -0.0242806 0 0 Z " fill="#40317A" transform="translate(271.56396484375,37.86962890625)"/>
<path d="M0 0 C12.21 0 24.42 0 37 0 C37 2.64 37 5.28 37 8 C24.65146452 8.2170641 12.33201708 7.56691997 0 7 C0 4.69 0 2.38 0 0 Z " fill="#342475" transform="translate(243,50)"/>
<path d="M0 0 C12.21 0 24.42 0 37 0 C37 2.31 37 4.62 37 7 C24.79 7 12.58 7 0 7 C0 4.69 0 2.38 0 0 Z " fill="#2E2160" transform="translate(243,91)"/>
<path d="M0 0 C0.33 0 0.66 0 1 0 C1 5.61 1 11.22 1 17 C10.57 17.33 20.14 17.66 30 18 C30 18.33 30 18.66 30 19 C23.02572411 19.02544556 16.05146028 19.04290697 9.07714844 19.05493164 C6.70670118 19.05994692 4.33625699 19.06676073 1.96582031 19.07543945 C-1.44987753 19.08762813 -4.86553431 19.09325649 -8.28125 19.09765625 C-9.33364868 19.10281754 -10.38604736 19.10797882 -11.47033691 19.11329651 C-17.07912067 19.11371996 -22.45252479 18.83850436 -28 18 C-28 17.67 -28 17.34 -28 17 C-27.40574219 16.85304688 -26.81148438 16.70609375 -26.19921875 16.5546875 C-16.103251 13.82265268 -7.77902175 9.88994645 -1.2421875 1.5390625 C-0.83226563 1.03117187 -0.42234375 0.52328125 0 0 Z " fill="#22202C" transform="translate(102,105)"/>
<path d="M0 0 C12.21 0 24.42 0 37 0 C37 2.31 37 4.62 37 7 C24.63407511 7.1574163 12.34584137 6.67707648 0 6 C0 4.02 0 2.04 0 0 Z " fill="#2B2056" transform="translate(243,71)"/>
<path d="M0 0 C9.9 0 19.8 0 30 0 C28 5 28 5 26 8 C23.38623047 8.34057617 23.38623047 8.34057617 20.1171875 8.29296875 C18.95058594 8.28330078 17.78398437 8.27363281 16.58203125 8.26367188 C15.35871094 8.23853516 14.13539062 8.21339844 12.875 8.1875 C11.64394531 8.17396484 10.41289063 8.16042969 9.14453125 8.14648438 C6.09592157 8.11103543 3.048175 8.06162079 0 8 C0 5.36 0 2.72 0 0 Z " fill="#271F45" transform="translate(113,114)"/>
<path d="M0 0 C1.43352212 0.00015908 2.86704998 0.00585132 4.30053711 0.01586914 C5.43041298 0.01799156 5.43041298 0.01799156 6.58311462 0.02015686 C8.99807646 0.02577163 11.41294687 0.03832656 13.82788086 0.05102539 C15.46134307 0.05603849 17.09480672 0.06060173 18.72827148 0.06469727 C22.74067671 0.07574585 26.75301326 0.09302033 30.76538086 0.11352539 C30.76538086 2.09352539 30.76538086 4.07352539 30.76538086 6.11352539 C18.22538086 6.11352539 5.68538086 6.11352539 -7.23461914 6.11352539 C-3.64322361 0.12786618 -3.64322361 0.12786618 0 0 Z " fill="#2C2159" transform="translate(202.234619140625,50.886474609375)"/>
<path d="M0 0 C8.74519948 -0.02321916 17.49038828 -0.04096379 26.23561192 -0.05181217 C30.29681554 -0.05702009 34.357998 -0.06407962 38.41918945 -0.07543945 C42.34195602 -0.08634283 46.26470228 -0.09229258 50.18748283 -0.09487724 C51.68051409 -0.0967181 53.17354429 -0.10031275 54.66656685 -0.10573006 C56.76544683 -0.11303949 58.86424401 -0.11398679 60.96313477 -0.11352539 C62.75183739 -0.11685631 62.75183739 -0.11685631 64.57667542 -0.12025452 C68.11326833 0.00397889 71.50845432 0.43761799 75 1 C74.67 1.66 74.34 2.32 74 3 C49.58 3 25.16 3 0 3 C0 2.01 0 1.02 0 0 Z " fill="#1D1B24" transform="translate(113,50)"/>
<path d="M0 0 C1.41345672 0.00187229 2.8269141 0.00329234 4.2403717 0.00428772 C7.90463146 0.00804915 11.5688496 0.01782237 15.23309326 0.0289917 C18.99458249 0.03934546 22.75607866 0.0438148 26.51757812 0.04882812 C33.85678951 0.05945253 41.19596698 0.07644903 48.53515625 0.09765625 C49.03015625 1.08765625 49.03015625 1.08765625 49.53515625 2.09765625 C46.95039761 3.39003557 45.08806098 3.22471617 42.19360352 3.22705078 C41.07385635 3.23020294 39.95410919 3.2333551 38.8004303 3.23660278 C36.96949074 3.23356644 36.96949074 3.23356644 35.1015625 3.23046875 C33.20905006 3.23190384 33.20905006 3.23190384 31.27830505 3.23336792 C28.5923221 3.23405034 25.90642915 3.23269232 23.22045898 3.22802734 C20.50233769 3.223529 17.78428316 3.22339879 15.06616211 3.22802734 C-0.14234985 3.2522462 -15.28881054 3.15323394 -30.46484375 2.09765625 C-30.46484375 1.76765625 -30.46484375 1.43765625 -30.46484375 1.09765625 C-20.29102648 0.29745818 -10.20856682 -0.04067503 0 0 Z " fill="#211D36" transform="translate(186.46484375,15.90234375)"/>
<path d="M0 0 C-0.66 1.32 -1.32 2.64 -2 4 C-23.69258436 4.13093305 -45.32335348 3.86284344 -67 3 C-67 2.34 -67 1.68 -67 1 C-44.65868384 0.2977483 -22.35385766 -0.16371839 0 0 Z " fill="#332373" transform="translate(180,62)"/>
<path d="M0 0 C0 1.32 0 2.64 0 4 C-15.84 4 -31.68 4 -48 4 C-48 3.01 -48 2.02 -48 1 C-31.99927319 -0.11586638 -16.03391014 -0.10778821 0 0 Z " fill="#1B1A21" transform="translate(338,74)"/>
<path d="M0 0 C14.19 0 28.38 0 43 0 C43 0.33 43 0.66 43 1 C35.41 1.33 27.82 1.66 20 2 C33.86 2.495 33.86 2.495 48 3 C48 3.66 48 4.32 48 5 C32.16 5 16.32 5 0 5 C0 3.35 0 1.7 0 0 Z " fill="#322372" transform="translate(290,104)"/>
<path d="M0 0 C0 1.32 0 2.64 0 4 C-15.18 4 -30.36 4 -46 4 C-46 3.01 -46 2.02 -46 1 C-30.67589409 -0.2418957 -15.36407828 -0.101915 0 0 Z " fill="#1D1B25" transform="translate(338,64)"/>
<path d="M0 0 C19.14 0 38.28 0 58 0 C57.67 0.66 57.34 1.32 57 2 C50.52254029 3.1989165 44.06922685 3.13055759 37.5 3.09765625 C36.42371338 3.0962413 35.34742676 3.09482635 34.23852539 3.09336853 C30.82565445 3.0878038 27.41285087 3.07525787 24 3.0625 C21.6757822 3.05748044 19.35156337 3.05291833 17.02734375 3.04882812 C11.3515398 3.03784593 5.67577471 3.0211432 0 3 C0 2.01 0 1.02 0 0 Z " fill="#1C1B24" transform="translate(113,75)"/>
<path d="M0 0 C7.55447097 -0.02325442 15.10893819 -0.04098152 22.66343689 -0.05181217 C26.17195915 -0.05701248 29.68045676 -0.06405785 33.18896484 -0.07543945 C37.23014552 -0.08846578 41.27130065 -0.09325178 45.3125 -0.09765625 C46.5617627 -0.10281754 47.81102539 -0.10797882 49.09814453 -0.11329651 C55.16415584 -0.11368459 61.00425711 0.05827734 67 1 C67 1.33 67 1.66 67 2 C44.65588784 2.94663506 22.36062628 3.12150482 0 3 C0 2.01 0 1.02 0 0 Z " fill="#1D1B25" transform="translate(113,60)"/>
<path d="M0 0 C-0.99 1.65 -1.98 3.3 -3 5 C-4.902052 4.76120117 -4.902052 4.76120117 -6.8425293 4.51757812 C-12.07111811 3.93874168 -17.26287853 3.79614026 -22.51953125 3.71875 C-23.49935471 3.70034058 -24.47917816 3.68193115 -25.48869324 3.66296387 C-28.59657306 3.60472039 -31.70450527 3.55172337 -34.8125 3.5 C-60.34835686 3.07283879 -60.34835686 3.07283879 -70 2 C-70 1.67 -70 1.34 -70 1 C-21.43495677 -0.19388403 -21.43495677 -0.19388403 0 0 Z " fill="#362678" transform="translate(184,57)"/>
<path d="M0 0 C12.87 0 25.74 0 39 0 C39 1.32 39 2.64 39 4 C25.47 4 11.94 4 -2 4 C-1.34 2.68 -0.68 1.36 0 0 Z " fill="#36267B" transform="translate(194,57)"/>
<path d="M0 0 C-1.52075195 2.48095703 -1.52075195 2.48095703 -4 5 C-6.78586511 5.392606 -8.91019041 5.47685767 -11.66796875 5.3046875 C-12.42104813 5.27778839 -13.1741275 5.25088928 -13.95002747 5.22317505 C-16.36420032 5.13106346 -18.77501792 5.00348538 -21.1875 4.875 C-22.75967203 4.81018821 -24.33194025 4.74766712 -25.90429688 4.6875 C-36.27648023 4.27017491 -46.63934537 3.63704416 -57 3 C-57 2.34 -57 1.68 -57 1 C-50.1681555 0.85641954 -43.33628472 0.71414316 -36.50439453 0.57275391 C-34.18244824 0.52454853 -31.86050802 0.47604961 -29.53857422 0.42724609 C-26.19239854 0.35696636 -22.84620212 0.28775806 -19.5 0.21875 C-18.4694751 0.19687622 -17.4389502 0.17500244 -16.37719727 0.15246582 C-10.9166613 0.04095763 -5.46166929 -0.02275696 0 0 Z " fill="#33246E" transform="translate(170,77)"/>
<path d="M0 0 C24.09 0 48.18 0 73 0 C72.67 0.99 72.34 1.98 72 3 C48.24 2.67 24.48 2.34 0 2 C0 1.34 0 0.68 0 0 Z " fill="#342377" transform="translate(113,53)"/>
<path d="M0 0 C0 1.32 0 2.64 0 4 C-6.03230491 4.02474909 -12.06458015 4.04288334 -18.09692383 4.05493164 C-20.14836136 4.0599553 -22.19979532 4.06677537 -24.2512207 4.07543945 C-27.2026457 4.08759112 -30.15402327 4.09324804 -33.10546875 4.09765625 C-34.02023483 4.10281754 -34.93500092 4.10797882 -35.87748718 4.11329651 C-40.04884192 4.11366265 -43.93379308 4.06733315 -48 3 C-48 2.34 -48 1.68 -48 1 C-43.73578576 0.85413532 -39.47146763 0.71193511 -35.20703125 0.57275391 C-33.76429151 0.52519457 -32.32158125 0.47673011 -30.87890625 0.42724609 C-20.58175623 0.07489948 -10.30306074 -0.06240077 0 0 Z " fill="#1A1A1D" transform="translate(338,95)"/>
<path d="M0 0 C1.9375 1.0625 1.9375 1.0625 3 3 C3.36528977 6.4093712 3.6140629 8.88023824 1.9375 11.9375 C-1.11976176 13.6140629 -3.5906288 13.36528977 -7 13 C-9.69786128 11.38128323 -9.97500723 10.07831069 -10.9375 7.0625 C-11 4 -11 4 -9.5 1.625 C-6.1204721 -0.57169314 -3.95601633 -0.50349299 0 0 Z " fill="#E4E0D4" transform="translate(242,4)"/>
<path d="M0 0 C0 1.32 0 2.64 0 4 C-10.82468242 4.07131276 -21.61946875 3.85665154 -32.4375 3.5 C-33.9589775 3.45160633 -35.48046188 3.40342827 -37.00195312 3.35546875 C-40.66805093 3.23945122 -44.33404852 3.12056309 -48 3 C-48 2.34 -48 1.68 -48 1 C-32.04413902 -0.46961877 -16.00522721 -0.09464518 0 0 Z " fill="#1A1A1C" transform="translate(338,85)"/>
<path d="M0 0 C-0.33 0.99 -0.66 1.98 -1 3 C-20.47 3 -39.94 3 -60 3 C-60 2.34 -60 1.68 -60 1 C-39.99506501 0.37192255 -20.01727573 -0.17662302 0 0 Z " fill="#342376" transform="translate(173,72)"/>
<path d="M0 0 C7.61577188 -0.02332525 15.23153999 -0.0410168 22.84733963 -0.05181217 C26.38489304 -0.05699733 29.92242174 -0.06401409 33.45996094 -0.07543945 C37.54101783 -0.08853548 41.62204938 -0.09326427 45.703125 -0.09765625 C46.95361633 -0.10281754 48.20410767 -0.10797882 49.49249268 -0.11329651 C57.04677501 -0.11377186 64.48372774 0.23746788 72 1 C72 1.66 72 2.32 72 3 C66.46411467 3.02464775 60.928261 3.04283496 55.39233398 3.05493164 C53.5075627 3.05997244 51.62279535 3.06680498 49.73803711 3.07543945 C47.03498364 3.08751617 44.33198169 3.09323068 41.62890625 3.09765625 C40.78099014 3.10281754 39.93307404 3.10797882 39.0594635 3.11329651 C37.03928932 3.11349195 35.01922066 3.06206211 33 3 C32.505 2.505 32.505 2.505 32 2 C29.62661361 1.84028023 27.27881728 1.7407567 24.90234375 1.68359375 C24.19348526 1.66281265 23.48462677 1.64203156 22.75428772 1.62062073 C20.48212695 1.55505402 18.20984736 1.4962077 15.9375 1.4375 C14.40037817 1.39432151 12.8632685 1.35070745 11.32617188 1.30664062 C7.5509041 1.19936551 3.7755164 1.09811863 0 1 C0 0.67 0 0.34 0 0 Z " fill="#291F4F" transform="translate(210,3)"/>
<path d="M0 0 C12.38297105 -0.11739981 24.6508245 0.02184749 37 1 C37 1.99 37 2.98 37 4 C25.12 4 13.24 4 1 4 C0.67 4.66 0.34 5.32 0 6 C0 4.02 0 2.04 0 0 Z " fill="#36257A" transform="translate(243,77)"/>
<path d="M0 0 C21.35693111 -0.14595737 42.65713176 0.22785351 64 1 C64 1.33 64 1.66 64 2 C42.65784301 3.03583981 21.36157111 3.11421421 0 3 C0 2.01 0 1.02 0 0 Z " fill="#1D1B25" transform="translate(113,65)"/>
<path d="M0 0 C6.35375112 -0.0253261 12.70748926 -0.04285678 19.0612793 -0.05493164 C21.22339362 -0.05996472 23.38550453 -0.06679169 25.54760742 -0.07543945 C28.65284059 -0.08754979 31.7580288 -0.09323852 34.86328125 -0.09765625 C36.31653557 -0.10539818 36.31653557 -0.10539818 37.79914856 -0.11329651 C38.6998558 -0.11337204 39.60056305 -0.11344757 40.52856445 -0.11352539 C41.32132278 -0.115746 42.11408112 -0.11796661 42.93086243 -0.12025452 C45 0 45 0 48 1 C48 1.66 48 2.32 48 3 C31.99010563 3.96093685 16.03626932 4.11862496 0 4 C0 2.68 0 1.36 0 0 Z " fill="#32246D" transform="translate(290,98)"/>
<path d="M0 0 C5.65185235 -0.0251245 11.30367066 -0.04305591 16.95556641 -0.05493164 C18.86963468 -0.05989368 20.78369931 -0.06666546 22.69775391 -0.07543945 C35.17176248 -0.13109776 47.55376591 0.14697808 60 1 C60 1.33 60 1.66 60 2 C52.53750474 2.14621742 45.0749345 2.28806738 37.61230469 2.42724609 C35.08754715 2.47480474 32.56280646 2.52326912 30.03808594 2.57275391 C12.02177366 2.92502817 -5.98052728 3.0681424 -24 3 C-24 2.67 -24 2.34 -24 2 C-16.08 1.67 -8.16 1.34 0 1 C0 0.67 0 0.34 0 0 Z " fill="#2B2058" transform="translate(297,131)"/>
<path d="M0 0 C15.84 0 31.68 0 48 0 C48 0.66 48 1.32 48 2 C32.04413902 3.46961877 16.00522721 3.09464518 0 3 C0 2.01 0 1.02 0 0 Z " fill="#2F2166" transform="translate(290,93)"/>
<path d="M0 0 C15.84 0 31.68 0 48 0 C48 0.99 48 1.98 48 3 C14.49821699 3.20638953 14.49821699 3.20638953 0 2 C0 1.34 0 0.68 0 0 Z " fill="#1C1A21" transform="translate(290,114)"/>
<path d="M0 0 C4.78311801 -0.02498214 9.56619685 -0.04299163 14.34936523 -0.05493164 C15.97176781 -0.05991672 17.594166 -0.0667072 19.21655273 -0.07543945 C28.19906119 -0.1225263 37.06649939 -0.09493092 46 1 C46 1.66 46 2.32 46 3 C30.82 3 15.64 3 0 3 C0 2.01 0 1.02 0 0 Z " fill="#1D1B26" transform="translate(113,90)"/>
<path d="M0 0 C5.61 0 11.22 0 17 0 C14.69727542 2.30272458 12.75188947 3.93059796 10.125 5.75 C6.10115223 8.69933962 3.73438261 11.85699605 1 16 C0.67 16 0.34 16 0 16 C0 10.72 0 5.44 0 0 Z " fill="#201E27" transform="translate(289,41)"/>
<path d="M0 0 C12.0312416 -0.0693721 24.03712002 0.13533497 36.0625 0.5 C37.71939447 0.54840256 39.37629552 0.59658058 41.03320312 0.64453125 C45.02221552 0.76044783 49.01112812 0.87934874 53 1 C53 1.66 53 2.32 53 3 C35.51 3 18.02 3 0 3 C0 2.01 0 1.02 0 0 Z " fill="#1C1A21" transform="translate(113,80)"/>
<path d="M0 0 C20.02457167 -0.16255741 39.99094072 0.29377581 60 1 C60 1.33 60 1.66 60 2 C39.99300623 3.09842319 20.02950192 3.10871056 0 3 C0 2.01 0 1.02 0 0 Z " fill="#1E1B29" transform="translate(113,70)"/>
<path d="M0 0 C12.21 0 24.42 0 37 0 C37 0.99 37 1.98 37 3 C24.79 3.33 12.58 3.66 0 4 C0 2.68 0 1.36 0 0 Z " fill="#36257A" transform="translate(243,116)"/>
<path d="M0 0 C0.62994873 0.32145996 1.25989746 0.64291992 1.90893555 0.97412109 C6.11848536 2.37120887 10.04787796 2.35558952 14.45703125 2.4140625 C15.35999435 2.43342865 16.26295746 2.4527948 17.19328308 2.4727478 C20.06626047 2.53234082 22.93927837 2.57884769 25.8125 2.625 C27.76499105 2.66319845 29.71746559 2.70225127 31.66992188 2.7421875 C36.44647984 2.83802569 41.22311667 2.92213152 46 3 C46 3.66 46 4.32 46 5 C20.92 4.67 -4.16 4.34 -30 4 C-30 3.34 -30 2.68 -30 2 C-20.1 2 -10.2 2 0 2 C0 1.34 0 0.68 0 0 Z " fill="#32246E" transform="translate(143,46)"/>
<path d="M0 0 C15.84 0 31.68 0 48 0 C48 0.66 48 1.32 48 2 C31.99105928 2.68503035 16.02406534 3.15457298 0 3 C0 2.01 0 1.02 0 0 Z " fill="#32246C" transform="translate(290,78)"/>
<path d="M0 0 C-1.3125 2.0625 -1.3125 2.0625 -4 4 C-6.02929688 3.99023438 -6.02929688 3.99023438 -8.53125 3.65625 C-13.60633659 3.09300002 -18.6302941 2.8222586 -23.73046875 2.68359375 C-24.88117607 2.65175743 -24.88117607 2.65175743 -26.05513 2.61927795 C-28.43252521 2.55599319 -30.80999879 2.49665383 -33.1875 2.4375 C-34.82357626 2.39420212 -36.45964409 2.3505847 -38.09570312 2.30664062 C-42.06371468 2.20074659 -46.03181481 2.09916477 -50 2 C-50 1.34 -50 0.68 -50 0 C-43.52231173 -0.16837483 -37.04445352 -0.32823725 -30.56640625 -0.48217773 C-28.3625818 -0.53555364 -26.15880368 -0.59087951 -23.95507812 -0.64819336 C-20.78786203 -0.73022711 -17.62054565 -0.80525151 -14.453125 -0.87890625 C-13.46757629 -0.90594131 -12.48202759 -0.93297638 -11.46661377 -0.96083069 C-10.5459613 -0.98092697 -9.62530884 -1.00102325 -8.67675781 -1.02172852 C-7.46430389 -1.05170677 -7.46430389 -1.05170677 -6.22735596 -1.08229065 C-4.0113391 -1.00041893 -2.12310348 -0.61993726 0 0 Z " fill="#342572" transform="translate(163,88)"/>
<path d="M0 0 C25.0884136 -0.2469706 49.9745305 0.14021612 75 2 C75 2.33 75 2.66 75 3 C67.53337352 3.02572084 60.06675879 3.04301929 52.60009766 3.05493164 C50.06916884 3.05990683 47.5382428 3.06668938 45.00732422 3.07543945 C29.96979168 3.12606085 15.00928618 2.96612749 0 2 C0 1.34 0 0.68 0 0 Z " fill="#2D225B" transform="translate(94,18)"/>
<path d="M0 0 C2.83727325 -0.26667539 5.45383045 -0.34791234 8.2890625 -0.29296875 C9.10748627 -0.28872391 9.92591003 -0.28447906 10.76913452 -0.28010559 C13.38808836 -0.26328679 16.00627802 -0.22562974 18.625 -0.1875 C20.3984264 -0.17245726 22.17186484 -0.15876814 23.9453125 -0.14648438 C28.2971703 -0.11337292 32.64845551 -0.06156952 37 0 C37 0.99 37 1.98 37 3 C24.13 3 11.26 3 -2 3 C-1.34 2.01 -0.68 1.02 0 0 Z " fill="#1B1B1D" transform="translate(299,55)"/>
<path d="M0 0 C15.84 0 31.68 0 48 0 C48 0.66 48 1.32 48 2 C43.73578576 2.14586468 39.47146763 2.28806489 35.20703125 2.42724609 C33.76429151 2.47480543 32.32158125 2.52326989 30.87890625 2.57275391 C20.58175623 2.92510052 10.30306074 3.06240077 0 3 C0 2.01 0 1.02 0 0 Z " fill="#30226B" transform="translate(290,83)"/>
<path d="M0 0 C11.15676906 -0.07448191 22.28678774 0.15512068 33.4375 0.5 C35.05533246 0.54838074 36.673171 0.59655885 38.29101562 0.64453125 C42.19408405 0.76069567 46.09706112 0.87956463 50 1 C46.97039007 2.74890971 44.80833325 3.24619963 41.32324219 3.22705078 C40.40258972 3.22689972 39.48193726 3.22674866 38.53338623 3.22659302 C37.54783752 3.21627045 36.56228882 3.20594788 35.546875 3.1953125 C34.02383759 3.19106766 34.02383759 3.19106766 32.47003174 3.18673706 C29.22990084 3.17555001 25.99004724 3.15044791 22.75 3.125 C20.55208733 3.1149683 18.35417032 3.10584278 16.15625 3.09765625 C10.77073886 3.07561551 5.38538924 3.04215251 0 3 C0 2.01 0 1.02 0 0 Z " fill="#1E1B28" transform="translate(113,85)"/>
<path d="M0 0 C25.9701529 -0.20638953 25.9701529 -0.20638953 37 1 C37 1.66 37 2.32 37 3 C24.79 3.33 12.58 3.66 0 4 C0 2.68 0 1.36 0 0 Z " fill="#352578" transform="translate(243,57)"/>
<path d="M0 0 C4.42504534 -0.0251577 8.85005022 -0.04307066 13.27514648 -0.05493164 C14.77320076 -0.05988838 16.27125039 -0.06665574 17.76928711 -0.07543945 C27.89676176 -0.13323303 37.90263673 0.18049582 48 1 C48 1.33 48 1.66 48 2 C31.99105928 2.68503035 16.02406534 3.15457298 0 3 C0 2.01 0 1.02 0 0 Z " fill="#2F2167" transform="translate(290,88)"/>
<path d="M0 0 C12.21 0 24.42 0 37 0 C37 0.99 37 1.98 37 3 C24.62594802 3.13305432 12.35061658 2.76677886 0 2 C0 1.34 0 0.68 0 0 Z " fill="#201C2F" transform="translate(243,50)"/>
<path d="M0 0 C16.01164257 -0.21412301 32.00151175 0.42987095 48 1 C45.03045709 2.70279307 42.91915193 3.24666179 39.50683594 3.22705078 C38.62622498 3.22689972 37.74561401 3.22674866 36.83831787 3.22659302 C35.42561615 3.21110916 35.42561615 3.21110916 33.984375 3.1953125 C33.01340881 3.1924826 32.04244263 3.18965271 31.04205322 3.18673706 C27.94457615 3.17555292 24.8473895 3.15045142 21.75 3.125 C19.64844168 3.11496792 17.54687882 3.10584247 15.4453125 3.09765625 C10.29676331 3.07561934 5.14843087 3.04110145 0 3 C0 2.01 0 1.02 0 0 Z " fill="#33246F" transform="translate(290,116)"/>
<path d="M0 0 C14.85 0 29.7 0 45 0 C44.67 0.99 44.34 1.98 44 3 C22.22 2.505 22.22 2.505 0 2 C0 1.34 0 0.68 0 0 Z " fill="#342477" transform="translate(113,93)"/>
<path d="M0 0 C1.73443359 0.00676758 1.73443359 0.00676758 3.50390625 0.01367188 C6.33599225 0.02537471 9.16796811 0.04177004 12 0.0625 C10.9284668 2.05175781 10.9284668 2.05175781 9 4.0625 C5.90551758 4.42480469 5.90551758 4.42480469 2.14453125 4.234375 C1.48289474 4.20651917 0.82125824 4.17866333 0.13957214 4.14996338 C-1.9708689 4.05668732 -4.07857239 3.9349864 -6.1875 3.8125 C-7.61905226 3.74421526 -9.05069435 3.67778676 -10.48242188 3.61328125 C-13.98957891 3.45120308 -17.49483994 3.26360797 -21 3.0625 C-21 2.4025 -21 1.7425 -21 1.0625 C-13.97942879 -0.03016243 -7.09531697 -0.05282882 0 0 Z " fill="#37277B" transform="translate(134,110.9375)"/>
<path d="M0 0 C9.57 0 19.14 0 29 0 C29.33 0.99 29.66 1.98 30 3 C20.1 3 10.2 3 0 3 C0 2.01 0 1.02 0 0 Z " fill="#1D1B25" transform="translate(113,45)"/>
<path d="M0 0 C9.57 0 19.14 0 29 0 C29 0.99 29 1.98 29 3 C19.1 3 9.2 3 -1 3 C-0.67 2.01 -0.34 1.02 0 0 Z " fill="#35247B" transform="translate(204,43)"/>
<path d="M0 0 C-0.66 0 -1.32 0 -2 0 C-2.33 0.99 -2.66 1.98 -3 3 C-22.8 2.505 -22.8 2.505 -43 2 C-43 1.34 -43 0.68 -43 0 C-37.51922847 -0.16780202 -32.03831026 -0.32834201 -26.55712891 -0.48217773 C-24.69281298 -0.53552266 -22.82855257 -0.59084602 -20.96435547 -0.64819336 C-18.28365039 -0.73031405 -15.60282573 -0.8053005 -12.921875 -0.87890625 C-12.08944275 -0.90594131 -11.2570105 -0.93297638 -10.39935303 -0.96083069 C-9.22859222 -0.99097511 -9.22859222 -0.99097511 -8.03417969 -1.02172852 C-7.00825714 -1.05170677 -7.00825714 -1.05170677 -5.96160889 -1.08229065 C-3.85733339 -0.99401505 -2.0208995 -0.57653538 0 0 Z " fill="#352671" transform="translate(156,98)"/>
<path d="M0 0 C12.21 0 24.42 0 37 0 C37 0.99 37 1.98 37 3 C24.65146452 3.2170641 12.33201708 2.56691997 0 2 C0 1.34 0 0.68 0 0 Z " fill="#221D35" transform="translate(243,55)"/>
<path d="M0 0 C-1.70246564 2.13068285 -2.5498613 2.93673938 -5.29692078 3.32279968 C-6.19626846 3.29837296 -7.09561615 3.27394623 -8.0222168 3.2487793 C-9.04304855 3.22853195 -10.06388031 3.20828461 -11.11564636 3.18742371 C-12.21572525 3.15006607 -13.31580414 3.11270844 -14.44921875 3.07421875 C-16.14084892 3.03455742 -16.14084892 3.03455742 -17.86665344 2.99409485 C-21.47413379 2.90621642 -25.08062064 2.79710462 -28.6875 2.6875 C-31.1308236 2.62425342 -33.57418334 2.56238698 -36.01757812 2.50195312 C-42.01223034 2.35065681 -48.00620312 2.18191662 -54 2 C-54 1.67 -54 1.34 -54 1 C-35.99716362 -0.14693838 -18.02952768 -0.10612327 0 0 Z " fill="#332472" transform="translate(235,4)"/>
<path d="M0 0 C10.76801846 1.07866621 21.62571671 1.26944912 32.4375 1.5625 C33.95899181 1.60585984 35.48047626 1.64947846 37.00195312 1.69335938 C40.6678893 1.79854022 44.33391085 1.90027519 48 2 C48 2.33 48 2.66 48 3 C41.02572411 3.02544556 34.05146028 3.04290697 27.07714844 3.05493164 C24.70670118 3.05994692 22.33625699 3.06676073 19.96582031 3.07543945 C16.55012247 3.08762813 13.13446569 3.09325649 9.71875 3.09765625 C8.66635132 3.10281754 7.61395264 3.10797882 6.52966309 3.11329651 C0.92087933 3.11371996 -4.45252479 2.83850436 -10 2 C-10 1.67 -10 1.34 -10 1 C-3.375 -1.125 -3.375 -1.125 0 0 Z " fill="#281F4D" transform="translate(84,121)"/>
<path d="M0 0 C8.91 0 17.82 0 27 0 C26.67 0.99 26.34 1.98 26 3 C17.42 3 8.84 3 0 3 C0 2.01 0 1.02 0 0 Z " fill="#1C1B21" transform="translate(113,119)"/>
<path d="M0 0 C4.29 0 8.58 0 13 0 C12.67 4.29 12.34 8.58 12 13 C9.05271262 10.05271262 6.58124209 7.22655261 4 4 C2.68 2.68 1.36 1.36 0 0 Z " fill="#28243A" transform="translate(91,44)"/>
<path d="M0 0 C13.53 0 27.06 0 41 0 C41 0.66 41 1.32 41 2 C24.34963068 3.29502872 7.68704397 3.09985802 -9 3 C-9 2.67 -9 2.34 -9 2 C-6.03 2 -3.06 2 0 2 C0 1.34 0 0.68 0 0 Z " fill="#2E235D" transform="translate(274,18)"/>
<path d="M0 0 C11.22 0 22.44 0 34 0 C33.67 0.66 33.34 1.32 33 2 C16.665 2.495 16.665 2.495 0 3 C0 2.01 0 1.02 0 0 Z " fill="#1B1A20" transform="translate(113,109)"/>
<path d="M0 0 C5.76578458 -0.0247279 11.53153825 -0.04287328 17.29736328 -0.05493164 C19.25863177 -0.05995887 21.21989652 -0.06678157 23.18115234 -0.07543945 C26.00098597 -0.08757545 28.82077002 -0.09324444 31.640625 -0.09765625 C32.95489471 -0.10539818 32.95489471 -0.10539818 34.29571533 -0.11329651 C35.52653839 -0.11340981 35.52653839 -0.11340981 36.78222656 -0.11352539 C37.86144379 -0.11685631 37.86144379 -0.11685631 38.96246338 -0.12025452 C41.08372224 0.00494125 42.95966287 0.42081435 45 1 C45 1.66 45 2.32 45 3 C29.96152009 3.1144481 15.00794906 3.01258452 0 2 C0 1.34 0 0.68 0 0 Z " fill="#302462" transform="translate(94,38)"/>
<path d="M0 0 C2.48340903 -0.26727014 4.71472068 -0.34866334 7.1953125 -0.29296875 C8.25647781 -0.28660149 8.25647781 -0.28660149 9.33908081 -0.28010559 C11.60143905 -0.26329547 13.86291048 -0.22564128 16.125 -0.1875 C17.65753923 -0.17245607 19.1900924 -0.15876716 20.72265625 -0.14648438 C24.48211318 -0.11338462 28.24090618 -0.06158825 32 0 C32.495 1.485 32.495 1.485 33 3 C21.45 3 9.9 3 -2 3 C-1.34 2.01 -0.68 1.02 0 0 Z " fill="#292149" transform="translate(302,52)"/>
<path d="M0 0 C0 0.99 0 1.98 0 3 C-11.88 3 -23.76 3 -36 3 C-36 2.67 -36 2.34 -36 2 C-29.44035468 1.06738615 -22.93028941 0.69577585 -16.3125 0.4375 C-15.29349609 0.39431641 -14.27449219 0.35113281 -13.22460938 0.30664062 C-8.81237814 0.12484169 -4.41657798 -0.02332612 0 0 Z " fill="#231D3B" transform="translate(338,104)"/>
<path d="M0 0 C10.23 0 20.46 0 31 0 C30.67 0.99 30.34 1.98 30 3 C19.77 2.67 9.54 2.34 -1 2 C-0.67 1.34 -0.34 0.68 0 0 Z " fill="#36257B" transform="translate(134,83)"/>
<path d="M0 0 C8.91 0 17.82 0 27 0 C27 0.33 27 0.66 27 1 C24.03 1 21.06 1 18 1 C18 1.66 18 2.32 18 3 C12.06 3 6.12 3 0 3 C0 2.01 0 1.02 0 0 Z " fill="#291F52" transform="translate(113,106)"/>
<path d="M0 0 C1.39025391 -0.02126953 1.39025391 -0.02126953 2.80859375 -0.04296875 C5.74083373 0.20242438 7.90111389 0.96548423 10.5625 2.1875 C10.5625 2.5175 10.5625 2.8475 10.5625 3.1875 C2.9725 3.1875 -4.6175 3.1875 -12.4375 3.1875 C-8.21716203 0.37394136 -5.02314659 0.03483458 0 0 Z " fill="#312851" transform="translate(319.4375,46.8125)"/>
<path d="M0 0 C0 0.33 0 0.66 0 1 C-3.63 1 -7.26 1 -11 1 C-11 1.66 -11 2.32 -11 3 C-15.29 3 -19.58 3 -24 3 C-24 2.34 -24 1.68 -24 1 C-16.02509872 -0.32915021 -8.05813281 -0.08801359 0 0 Z " fill="#30226B" transform="translate(137,111)"/>
<path d="M0 0 C5.94 0.33 11.88 0.66 18 1 C15.44775845 3.55224155 13.55291739 3.98325138 9.98535156 4.02172852 C9.2940918 3.97459717 8.60283203 3.92746582 7.890625 3.87890625 C7.13652344 3.83056641 6.38242187 3.78222656 5.60546875 3.73242188 C4.82816406 3.67634766 4.05085938 3.62027344 3.25 3.5625 C2.45722656 3.51029297 1.66445313 3.45808594 0.84765625 3.40429688 C-1.10193997 3.27510676 -3.05102886 3.13830035 -5 3 C-5 2.67 -5 2.34 -5 2 C-3.35 2 -1.7 2 0 2 C0 1.34 0 0.68 0 0 Z " fill="#352869" transform="translate(294,38)"/>
<path d="M0 0 C4.95 0 9.9 0 15 0 C15.33 0.66 15.66 1.32 16 2 C10.61509359 2.91657981 5.45769811 3.11138159 0 3 C0 2.01 0 1.02 0 0 Z " fill="#34247A" transform="translate(290,93)"/>
<path d="M0 0 C3.3 0 6.6 0 10 0 C6.2890625 6.25 6.2890625 6.25 5 8 C4.34 8 3.68 8 3 8 C2.01 5.36 1.02 2.72 0 0 Z " fill="#292631" transform="translate(344,48)"/>
<path d="M0 0 C0.33 0 0.66 0 1 0 C1 2.97 1 5.94 1 9 C-1.64 9 -4.28 9 -7 9 C-6.02180976 7.68677212 -5.0424189 6.37443848 -4.0625 5.0625 C-3.51722656 4.33160156 -2.97195312 3.60070312 -2.41015625 2.84765625 C-1 1 -1 1 0 0 Z " fill="#292342" transform="translate(102,105)"/>
<path d="M0 0 C2.31 0 4.62 0 7 0 C6.02501855 1.5027237 5.04490611 3.00211963 4.0625 4.5 C3.51722656 5.3353125 2.97195313 6.170625 2.41015625 7.03125 C1.71212891 8.00578125 1.71212891 8.00578125 1 9 C0.67 9 0.34 9 0 9 C0 6.03 0 3.06 0 0 Z " fill="#2E264F" transform="translate(289,48)"/>
<path d="M0 0 C2.3828125 -0.29296875 2.3828125 -0.29296875 5.125 -0.1875 C6.03507812 -0.16042969 6.94515625 -0.13335937 7.8828125 -0.10546875 C8.58148438 -0.07066406 9.28015625 -0.03585938 10 0 C10 0.99 10 1.98 10 3 C6.04 3 2.08 3 -2 3 C-1.34 2.01 -0.68 1.02 0 0 Z " fill="#1D1D1C" transform="translate(93,114)"/>
<path d="M0 0 C4.62 0 9.24 0 14 0 C10 3 10 3 7.421875 3.07421875 C6.09929687 2.88279297 6.09929687 2.88279297 4.75 2.6875 C3.85796875 2.56761719 2.9659375 2.44773438 2.046875 2.32421875 C1.37140625 2.21722656 0.6959375 2.11023437 0 2 C0 1.34 0 0.68 0 0 Z " fill="#30245F" transform="translate(289,43)"/>
<path d="M0 0 C0.93779297 0.00322266 1.87558594 0.00644531 2.84179688 0.00976562 C4.30649414 0.02233398 4.30649414 0.02233398 5.80078125 0.03515625 C7.28288086 0.04192383 7.28288086 0.04192383 8.79492188 0.04882812 C11.23443599 0.06061322 13.67382814 0.07706614 16.11328125 0.09765625 C16.11328125 0.75765625 16.11328125 1.41765625 16.11328125 2.09765625 C12.67669417 2.32345979 9.23910907 2.52528322 5.80078125 2.72265625 C4.82431641 2.78710938 3.84785156 2.8515625 2.84179688 2.91796875 C1.43510742 2.9953125 1.43510742 2.9953125 0 3.07421875 C-1.29611206 3.152771 -1.29611206 3.152771 -2.6184082 3.23291016 C-4.88671875 3.09765625 -4.88671875 3.09765625 -7.88671875 1.09765625 C-4.94539984 0.11721661 -3.0617021 -0.01855577 0 0 Z " fill="#362C5C" transform="translate(338.88671875,37.90234375)"/>
<path d="M0 0 C2.3431213 0.25561323 4.67843403 0.59270772 7 1 C7.33 1.66 7.66 2.32 8 3 C4.7 3 1.4 3 -2 3 C-1.34 2.01 -0.68 1.02 0 0 Z " fill="#352868" transform="translate(302,52)"/>
<path d="M0 0 C0 0.99 0 1.98 0 3 C-3.3 2.67 -6.6 2.34 -10 2 C-10 1.67 -10 1.34 -10 1 C-3.375 -1.125 -3.375 -1.125 0 0 Z " fill="#322E3F" transform="translate(84,121)"/>
</svg>
